<svg width="15" height="15" viewBox="0 0 15 15" fill="none" xmlns="http://www.w3.org/2000/svg">
<path d="M14.831 12.54C15.312 13.409 14.708 14.495 13.748 14.495H1.25099C0.289995 14.495 -0.310975 13.407 0.169025 12.54L6.41701 1.24397C6.89801 0.373974 8.10303 0.375974 8.58303 1.24397L14.831 12.54ZM7.50002 10.205C6.83802 10.205 6.30202 10.764 6.30202 11.454C6.30202 12.143 6.83802 12.703 7.50002 12.703C8.16202 12.703 8.69802 12.143 8.69802 11.454C8.69802 10.764 8.16202 10.205 7.50002 10.205ZM6.36299 5.71498L6.55605 9.40798C6.56505 9.57998 6.702 9.71599 6.868 9.71599H8.13204C8.29804 9.71599 8.43499 9.57998 8.44399 9.40798L8.63704 5.71498C8.64704 5.52798 8.50503 5.37099 8.32503 5.37099H6.67501C6.49501 5.37099 6.35299 5.52798 6.36299 5.71498Z" fill="#EE144E"/>
</svg>
