<svg width="16" height="11" viewBox="0 0 16 11" fill="none" xmlns="http://www.w3.org/2000/svg">
<path d="M7.50095 2.64901C7.22495 2.65401 6.95096 2.69601 6.68796 2.77901C6.81096 2.99301 6.87595 3.23501 6.87595 3.48301C6.87595 4.28701 6.22197 4.94101 5.41697 4.94101C5.16997 4.93801 4.92796 4.87301 4.71396 4.75301C4.26896 6.29501 5.15995 7.91 6.70395 8.353C8.24795 8.798 9.86 7.90701 10.306 6.36301C10.751 4.81901 9.85995 3.20701 8.31595 2.76101C8.04995 2.68601 7.77695 2.64901 7.50095 2.64901ZM14.9099 5.186C13.4979 2.43 10.7009 0.56601 7.50095 0.56601C4.29995 0.56601 1.50295 2.43 0.0919531 5.186C-0.0280469 5.425 -0.0280469 5.70701 0.0919531 5.94601C1.50295 8.70201 4.29995 10.566 7.50095 10.566C10.7009 10.566 13.4979 8.70201 14.9099 5.94601C15.0319 5.70701 15.0319 5.425 14.9099 5.186ZM7.50095 9.31601C4.93295 9.31601 2.57597 7.88401 1.30497 5.56601C2.57597 3.24801 4.92995 1.81601 7.50095 1.81601C10.0709 1.81601 12.425 3.24801 13.696 5.56601C12.425 7.88401 10.0709 9.31601 7.50095 9.31601Z" fill="#3E3E3E"/>
</svg>
